<svg version="1.1" id="Layer_1" xmlns="http://www.w3.org/2000/svg" xmlns:xlink="http://www.w3.org/1999/xlink" x="0px" y="0px"
	 width="100%" viewBox="0 0 500 500" enable-background="new 0 0 500 500" xml:space="preserve">
<path fill="#1800AD" opacity="1.000000" stroke="none" 
	d="
M350.000000,501.000000 
	C233.333359,501.000000 117.166725,501.000000 1.000062,501.000000 
	C1.000041,334.333405 1.000041,167.666809 1.000021,1.000152 
	C167.666550,1.000101 334.333099,1.000101 500.999756,1.000051 
	C500.999817,167.666519 500.999817,334.333038 500.999908,500.999786 
	C450.833344,501.000000 400.666656,501.000000 350.000000,501.000000 
M394.950745,404.422974 
	C405.083588,402.635590 415.488251,401.769287 425.294708,398.875702 
	C448.163025,392.127991 466.033875,378.842194 475.749115,356.250427 
	C481.860016,342.040222 483.844360,327.072968 482.861359,311.791962 
	C480.893768,281.205048 466.286163,259.195770 437.987701,246.469971 
	C421.268463,238.951355 403.400604,235.929504 385.739441,231.962234 
	C372.805847,229.056946 359.466309,227.550934 347.495789,221.171158 
	C334.691345,214.346954 329.003448,200.021545 333.886414,186.335037 
	C338.299896,173.964432 348.629242,169.070511 360.317047,167.110794 
	C389.689056,162.185944 416.650513,166.941147 438.992676,188.473251 
	C441.849854,191.226852 444.747925,190.901840 447.275787,187.391006 
	C455.055847,176.585556 462.997162,165.896286 470.854095,155.145996 
	C471.416382,154.376587 471.802856,153.478668 472.277954,152.628189 
	C460.719910,139.808670 446.796570,131.110504 430.655762,125.832611 
	C404.955109,117.428764 378.680878,116.495438 352.183197,120.352089 
	C334.485962,122.927864 317.875031,128.884445 304.026062,140.564240 
	C288.099030,153.996597 280.166199,171.456696 278.558777,192.307602 
	C276.009918,225.370789 291.290405,252.465485 321.156860,266.964478 
	C338.429504,275.349670 357.217834,278.275269 375.502289,283.114960 
	C387.495972,286.289551 399.650757,289.489288 410.960114,294.443115 
	C423.042236,299.735443 427.438843,310.778625 426.750916,323.679871 
	C426.013641,337.506653 419.944183,348.148346 406.542603,352.950714 
	C385.481354,360.497833 364.570251,358.246460 344.315125,349.725586 
	C328.932922,343.254669 316.772247,332.512299 306.904236,319.109528 
	C304.372070,315.670319 301.245209,315.339264 298.759399,318.335052 
	C289.091187,329.986603 279.533325,341.729736 269.935974,353.436890 
	C278.308228,367.646271 289.902985,378.220612 303.878235,386.140442 
	C331.895416,402.017853 362.375824,406.238617 394.950745,404.422974 
M40.030045,279.500000 
	C40.030045,319.910278 40.030045,360.320587 40.030045,400.713623 
	C58.699989,400.713623 76.770699,400.713623 95.294281,400.713623 
	C95.294281,366.040375 95.294281,331.652710 95.294281,297.001526 
	C112.221710,297.001526 128.727936,297.647064 145.156708,296.796478 
	C158.200943,296.121094 171.529053,295.011597 184.058975,291.615173 
	C206.542435,285.520691 223.829132,271.934540 233.627075,250.149200 
	C243.137192,229.003799 244.297394,206.972000 239.023010,184.692368 
	C232.946182,159.023346 217.351807,141.198120 193.034912,130.709976 
	C177.686539,124.090073 161.584122,122.353348 145.238510,122.234680 
	C111.757370,121.991608 78.273216,122.158920 44.790310,122.171097 
	C43.339130,122.171623 41.888000,122.309952 40.030045,122.404869 
	C40.030045,174.632355 40.030045,226.566177 40.030045,279.500000 
z"/>
<path fill="#FEFEFF" opacity="1.000000" stroke="none" 
	d="
M394.487732,404.476318 
	C362.375824,406.238617 331.895416,402.017853 303.878235,386.140442 
	C289.902985,378.220612 278.308228,367.646271 269.935974,353.436890 
	C279.533325,341.729736 289.091187,329.986603 298.759399,318.335052 
	C301.245209,315.339264 304.372070,315.670319 306.904236,319.109528 
	C316.772247,332.512299 328.932922,343.254669 344.315125,349.725586 
	C364.570251,358.246460 385.481354,360.497833 406.542603,352.950714 
	C419.944183,348.148346 426.013641,337.506653 426.750916,323.679871 
	C427.438843,310.778625 423.042236,299.735443 410.960114,294.443115 
	C399.650757,289.489288 387.495972,286.289551 375.502289,283.114960 
	C357.217834,278.275269 338.429504,275.349670 321.156860,266.964478 
	C291.290405,252.465485 276.009918,225.370789 278.558777,192.307602 
	C280.166199,171.456696 288.099030,153.996597 304.026062,140.564240 
	C317.875031,128.884445 334.485962,122.927864 352.183197,120.352089 
	C378.680878,116.495438 404.955109,117.428764 430.655762,125.832611 
	C446.796570,131.110504 460.719910,139.808670 472.277954,152.628189 
	C471.802856,153.478668 471.416382,154.376587 470.854095,155.145996 
	C462.997162,165.896286 455.055847,176.585556 447.275787,187.391006 
	C444.747925,190.901840 441.849854,191.226852 438.992676,188.473251 
	C416.650513,166.941147 389.689056,162.185944 360.317047,167.110794 
	C348.629242,169.070511 338.299896,173.964432 333.886414,186.335037 
	C329.003448,200.021545 334.691345,214.346954 347.495789,221.171158 
	C359.466309,227.550934 372.805847,229.056946 385.739441,231.962234 
	C403.400604,235.929504 421.268463,238.951355 437.987701,246.469971 
	C466.286163,259.195770 480.893768,281.205048 482.861359,311.791962 
	C483.844360,327.072968 481.860016,342.040222 475.749115,356.250427 
	C466.033875,378.842194 448.163025,392.127991 425.294708,398.875702 
	C415.488251,401.769287 405.083588,402.635590 394.487732,404.476318 
z"/>
<path fill="#FEFEFF" opacity="1.000000" stroke="none" 
	d="
M40.030045,279.000000 
	C40.030045,226.566177 40.030045,174.632355 40.030045,122.404869 
	C41.888000,122.309952 43.339130,122.171623 44.790310,122.171097 
	C78.273216,122.158920 111.757370,121.991608 145.238510,122.234680 
	C161.584122,122.353348 177.686539,124.090073 193.034912,130.709976 
	C217.351807,141.198120 232.946182,159.023346 239.023010,184.692368 
	C244.297394,206.972000 243.137192,229.003799 233.627075,250.149200 
	C223.829132,271.934540 206.542435,285.520691 184.058975,291.615173 
	C171.529053,295.011597 158.200943,296.121094 145.156708,296.796478 
	C128.727936,297.647064 112.221710,297.001526 95.294281,297.001526 
	C95.294281,331.652710 95.294281,366.040375 95.294281,400.713623 
	C76.770699,400.713623 58.699989,400.713623 40.030045,400.713623 
	C40.030045,360.320587 40.030045,319.910278 40.030045,279.000000 
M95.109993,210.499969 
	C95.109993,224.730026 95.109993,238.960083 95.109993,252.870743 
	C114.149254,252.870743 132.462936,253.450806 150.717346,252.661087 
	C162.345917,252.158005 172.685715,247.357071 179.463272,237.080612 
	C187.297546,225.201828 187.561554,211.883377 185.591599,198.568207 
	C182.893814,180.333450 171.492050,168.532410 153.404663,167.149353 
	C134.378555,165.694550 115.195053,166.296417 96.079926,166.028503 
	C95.836555,166.025085 95.587837,166.403381 95.109886,166.791870 
	C95.109886,180.907104 95.109886,195.203522 95.109993,210.499969 
z"/>
<path fill="#1901AD" opacity="1.000000" stroke="none" 
	d="
M95.109940,209.999954 
	C95.109886,195.203522 95.109886,180.907104 95.109886,166.791870 
	C95.587837,166.403381 95.836555,166.025085 96.079926,166.028503 
	C115.195053,166.296417 134.378555,165.694550 153.404663,167.149353 
	C171.492050,168.532410 182.893814,180.333450 185.591599,198.568207 
	C187.561554,211.883377 187.297546,225.201828 179.463272,237.080612 
	C172.685715,247.357071 162.345917,252.158005 150.717346,252.661087 
	C132.462936,253.450806 114.149254,252.870743 95.109993,252.870743 
	C95.109993,238.960083 95.109993,224.730026 95.109940,209.999954 
z"/>
</svg>